<?xml version="1.0" standalone="no"?>
<!DOCTYPE svg PUBLIC "-//W3C//DTD SVG 20010904//EN"
 "http://www.w3.org/TR/2001/REC-SVG-20010904/DTD/svg10.dtd">
<svg version="1.0" xmlns="http://www.w3.org/2000/svg"
 width="500.000000pt" height="500.000000pt" viewBox="0 0 500.000000 500.000000"
 preserveAspectRatio="xMidYMid meet">

<g transform="translate(0.000000,500.000000) scale(0.100000,-0.100000)"
fill="#000000" stroke="none">
<path d="M2345 4124 c-247 -29 -423 -81 -618 -183 -258 -134 -479 -342 -640
-601 -40 -65 -107 -199 -107 -215 0 -3 28 -5 63 -5 l63 0 23 48 c184 380 562
687 976 792 465 118 932 20 1310 -275 161 -126 322 -319 411 -497 l34 -68 65
0 64 0 -20 48 c-76 178 -227 386 -386 531 -306 280 -714 436 -1120 430 -48 -1
-101 -4 -118 -5z"/>
<path d="M2303 3900 c-356 -45 -714 -250 -932 -534 -46 -59 -151 -225 -151
-238 0 -4 9 -8 19 -8 14 0 34 24 66 77 67 110 127 186 224 281 522 515 1366
520 1895 12 97 -93 181 -198 242 -302 30 -53 44 -68 62 -68 l23 0 -32 58 c-95
167 -255 351 -404 460 -144 106 -356 201 -544 243 -101 22 -358 33 -468 19z"/>
<path d="M2365 3832 c-77 -36 -102 -71 -150 -210 -2 -6 -21 -19 -42 -28 -138
-58 -184 -86 -210 -132 -40 -69 -43 -136 -7 -203 40 -73 98 -109 175 -109 l57
0 13 -71 c12 -69 13 -70 38 -65 97 22 229 29 330 17 58 -7 115 -14 126 -14 16
-2 21 8 30 58 l10 60 48 7 c154 22 230 195 154 350 -65 132 -182 250 -314 318
-85 44 -192 53 -258 22z m194 -46 c147 -53 339 -266 357 -399 11 -81 -28 -155
-100 -188 -54 -25 -66 -24 -66 5 0 18 11 31 41 48 23 12 48 36 56 52 l15 28
-37 -28 c-58 -44 -131 -45 -226 -3 -41 18 -91 37 -113 44 l-38 11 41 33 c23
18 65 46 94 63 49 28 50 29 17 23 -64 -12 -135 -54 -219 -129 -90 -82 -125
-96 -185 -76 -20 6 -50 26 -68 43 -20 20 -29 25 -25 14 4 -10 7 -22 7 -27 0
-4 16 -25 35 -46 51 -55 47 -67 -18 -62 -35 3 -66 13 -87 28 -36 26 -69 90
-70 134 0 41 36 112 68 135 30 20 142 64 149 58 2 -3 -10 -16 -27 -31 -20 -17
-26 -26 -16 -26 35 0 85 61 116 142 17 45 39 92 48 104 42 58 160 82 251 50z
m23 -532 c17 -9 52 -19 77 -23 52 -8 53 -11 31 -118 l-12 -54 -46 8 c-52 9
-271 11 -341 3 -50 -6 -45 -12 -65 103 -7 36 -6 37 22 37 17 0 54 13 83 29 47
25 65 29 137 30 58 1 92 -4 114 -15z"/>
<path d="M2022 2919 c-55 -27 -102 -83 -127 -151 -16 -43 -20 -77 -19 -188 0
-123 2 -140 25 -190 48 -104 139 -159 243 -146 71 8 166 69 143 92 -2 3 -22
-6 -42 -21 -78 -52 -161 -27 -203 63 -26 54 -27 65 -27 212 0 176 14 238 67
291 23 23 38 29 62 27 32 -3 33 -5 52 -105 5 -29 44 -31 67 -5 37 40 10 110
-50 133 -45 17 -145 11 -191 -12z"/>
<path d="M2443 2930 c-95 -19 -153 -74 -153 -146 0 -80 66 -119 124 -73 29 22
34 60 12 78 -12 10 -20 9 -41 -5 -24 -16 -27 -16 -43 -1 -38 39 23 106 98 110
l45 2 5 -267 c4 -195 8 -270 18 -280 16 -16 76 -16 96 1 14 12 16 47 16 268 0
156 4 262 10 274 14 26 54 24 79 -3 51 -54 32 -215 -27 -234 -9 -3 -22 -7 -28
-9 -17 -5 169 -364 206 -397 40 -37 73 -44 139 -30 65 14 90 32 44 32 -44 0
-82 48 -166 207 -37 70 -78 141 -91 157 l-23 30 31 21 c101 67 83 220 -30 259
-52 17 -244 21 -321 6z"/>
<path d="M3884 2318 c-5 -7 -11 -36 -15 -65 -19 -137 -126 -220 -331 -255 -96
-17 -570 -17 -743 0 -71 7 -238 24 -370 37 -624 62 -1002 58 -1240 -15 -84
-26 -215 -87 -215 -100 0 -15 12 -12 97 21 43 18 132 43 198 57 115 25 133 26
455 26 273 0 375 -4 550 -22 657 -68 631 -66 975 -66 309 0 335 1 409 22 95
26 155 60 212 119 87 89 114 253 43 253 -10 0 -21 -6 -25 -12z"/>
<path d="M3210 2280 c0 -5 5 -10 10 -10 6 0 10 5 10 10 0 6 -4 10 -10 10 -5 0
-10 -4 -10 -10z"/>
<path d="M3345 2266 c-17 -7 -39 -25 -48 -40 -10 -14 -23 -26 -30 -26 -24 0
-134 -58 -170 -90 -35 -30 -50 -70 -27 -70 6 0 35 20 66 45 89 73 146 97 207
90 92 -11 163 49 105 89 -27 19 -62 20 -103 2z m81 -51 c-11 -8 -27 -15 -35
-15 -9 1 -2 7 14 15 39 18 44 18 21 0z"/>
<path d="M3514 2255 c-3 -8 -3 -19 0 -24 9 -13 36 -2 36 14 0 19 -30 27 -36
10z"/>
<path d="M3990 2204 c-6 -14 -10 -31 -10 -38 0 -58 -89 -167 -165 -202 -29
-14 -41 -24 -30 -24 67 0 199 102 235 183 27 58 27 107 0 107 -13 0 -24 -10
-30 -26z"/>
<path d="M3610 2201 c-30 -10 -71 -27 -90 -39 -19 -12 -51 -22 -71 -22 -22 0
-53 -11 -83 -31 -53 -33 -57 -50 -6 -24 18 9 34 14 37 11 3 -3 -11 -13 -31
-22 -20 -10 -36 -21 -36 -26 0 -13 19 -9 46 8 13 9 27 14 30 11 3 -3 -9 -13
-28 -23 -18 -9 -28 -19 -21 -21 18 -6 93 36 127 72 33 35 130 71 219 82 37 5
47 10 45 22 -5 23 -71 24 -138 2z"/>
<path d="M1395 2154 c-159 -34 -334 -88 -321 -101 2 -2 34 5 70 16 98 30 226
50 366 57 139 6 167 11 135 24 -20 9 -213 11 -250 4z"/>
<path d="M3280 2125 c0 -8 5 -15 10 -15 6 0 10 7 10 15 0 8 -4 15 -10 15 -5 0
-10 -7 -10 -15z"/>
<path d="M1056 1713 c166 -289 394 -509 674 -656 235 -123 466 -180 733 -181
118 -1 146 -4 142 -14 -3 -8 -5 -38 -5 -68 0 -50 -2 -54 -24 -54 -21 0 -25 6
-31 50 -4 28 -12 50 -18 51 -36 4 -65 -5 -87 -27 -20 -19 -23 -28 -14 -42 14
-21 49 -23 49 -2 0 9 -7 14 -17 12 -25 -4 -23 25 2 38 29 16 40 4 40 -40 0
-28 -5 -40 -17 -43 -17 -4 -17 -5 0 -6 14 -1 17 -11 17 -66 0 -55 -3 -66 -21
-75 -15 -8 -24 -8 -34 0 -9 7 -15 8 -20 1 -10 -17 43 -24 76 -11 39 16 49 37
49 99 0 48 2 51 25 51 20 0 25 -5 25 -24 0 -13 3 -38 6 -55 6 -27 11 -31 37
-31 24 0 28 3 19 12 -7 7 -12 31 -12 54 0 32 4 44 18 47 14 4 14 5 1 6 -13 1
-18 15 -21 58 -3 32 -3 63 -1 69 2 6 41 16 86 24 250 40 494 140 701 288 105
74 278 245 355 351 57 77 141 212 141 225 0 3 -29 6 -64 6 l-64 0 -67 -100
c-377 -561 -1080 -802 -1724 -591 -243 80 -460 217 -624 394 -63 68 -157 190
-191 250 l-28 47 -70 0 -70 0 28 -47z"/>
<path d="M1290 1754 c0 -12 94 -138 144 -194 209 -232 480 -384 801 -447 121
-24 376 -24 496 0 274 54 513 174 712 358 70 64 173 187 222 262 17 27 17 27
-7 27 -18 0 -36 -17 -78 -76 -111 -155 -307 -318 -495 -412 -401 -199 -902
-183 -1282 42 -168 99 -307 222 -419 371 -35 47 -64 75 -75 75 -11 0 -19 -3
-19 -6z"/>
<path d="M2501 1711 c-23 -47 -27 -51 -70 -57 -25 -4 -50 -9 -54 -11 -5 -3 8
-22 28 -43 36 -37 37 -40 30 -90 l-7 -51 49 25 50 25 39 -24 c21 -14 42 -25
46 -25 4 0 5 26 2 59 -7 58 -6 58 30 86 40 30 39 45 -2 45 -52 0 -68 11 -93
62 l-25 50 -23 -51z"/>
<path d="M2172 1581 c-11 -35 -17 -41 -47 -47 -48 -9 -49 -16 -9 -44 33 -22
35 -26 29 -62 -8 -44 1 -47 40 -17 23 19 31 20 63 11 20 -6 38 -9 40 -7 2 2
-1 19 -7 37 -10 28 -9 36 9 60 25 34 20 47 -17 40 -22 -4 -32 2 -58 32 l-31
38 -12 -41z"/>
<path d="M2837 1590 c-10 -16 -26 -31 -35 -31 -22 -2 -55 -6 -65 -7 -4 -1 3
-17 18 -35 22 -30 24 -38 14 -66 -14 -40 -10 -44 29 -30 27 9 37 8 67 -11 l35
-22 0 41 c0 33 5 43 30 61 35 25 32 36 -10 45 -24 5 -32 14 -41 46 -7 21 -15
39 -18 39 -4 0 -15 -13 -24 -30z"/>
<path d="M3777 1472 c-26 -29 -20 -53 25 -99 23 -24 38 -43 33 -43 -6 0 -39 9
-73 19 -71 22 -84 20 -106 -14 -29 -44 -15 -95 25 -95 22 0 31 25 15 40 -10 8
-15 6 -20 -6 -10 -27 -30 0 -22 30 3 14 10 26 14 26 17 0 133 -124 130 -139
-2 -8 -14 -21 -26 -27 -16 -8 -20 -14 -12 -19 17 -10 50 24 50 52 0 15 -18 43
-46 73 l-45 48 76 -24 c42 -13 89 -24 105 -24 31 0 71 30 69 53 0 10 -2 10 -6
0 -2 -7 -20 -13 -39 -13 -29 0 -45 10 -94 58 -33 32 -60 65 -60 75 0 9 12 23
28 31 16 9 21 15 11 16 -9 0 -23 -8 -32 -18z"/>
<path d="M1136 1427 c-20 -15 -14 -57 8 -57 20 0 27 12 15 26 -19 23 -1 34 33
22 l31 -11 -37 -34 c-21 -20 -42 -31 -49 -27 -7 4 -9 3 -4 -1 4 -5 -9 -25 -29
-46 -55 -56 -25 -84 36 -33 29 25 32 25 49 10 27 -25 37 -19 12 8 l-22 24 37
28 36 28 24 -29 c13 -17 24 -24 24 -18 0 18 -69 92 -101 109 -34 17 -40 17
-63 1z"/>
<path d="M1346 1189 c-61 -48 -72 -115 -27 -160 42 -41 88 -40 135 4 53 51 61
123 16 147 -39 21 -85 -18 -63 -52 5 -9 9 -3 13 17 6 33 34 46 44 20 8 -22
-27 -87 -64 -119 -36 -29 -52 -32 -69 -12 -20 24 0 68 55 123 l53 53 -33 0
c-19 0 -45 -9 -60 -21z"/>
<path d="M3428 1140 c-30 -23 -38 -47 -27 -79 11 -28 52 -26 57 3 3 16 0 18
-22 12 -21 -5 -26 -3 -26 12 0 20 18 42 35 42 5 0 20 -24 31 -54 20 -50 20
-56 5 -71 -15 -15 -15 -16 4 -13 17 2 20 -3 20 -32 0 -29 -4 -36 -22 -38 -24
-4 -32 -22 -10 -22 33 0 51 27 49 74 -2 59 22 76 68 50 28 -17 30 -17 50 1
l21 19 -32 13 c-25 11 -29 16 -20 27 10 12 8 13 -8 9 -13 -3 -35 7 -64 31 -50
41 -74 44 -109 16z m106 -97 c-21 -15 -30 -9 -40 31 l-7 30 33 -24 c31 -22 32
-24 14 -37z"/>
<path d="M3245 1039 c-4 -5 0 -18 9 -28 16 -17 42 -128 33 -138 -3 -2 -27 21
-53 51 -37 42 -56 56 -76 56 -48 0 -83 -51 -59 -88 12 -19 45 -11 49 12 3 14
-1 17 -16 12 -27 -9 -38 12 -17 32 15 16 21 12 88 -61 101 -109 114 -105 96
30 -6 48 -15 98 -20 111 -9 24 -24 29 -34 11z"/>
<path d="M1653 1025 c-70 -30 -97 -134 -47 -180 42 -39 94 -34 133 10 58 66
53 125 -14 162 -36 19 -43 20 -72 8z m72 -18 c23 -18 15 -68 -22 -124 -40 -63
-83 -66 -83 -7 0 38 21 87 53 122 24 26 27 26 52 9z"/>
<path d="M1687 1003 c-11 -11 -8 -53 4 -53 6 0 8 7 5 16 -4 9 -1 23 5 30 11
14 -1 20 -14 7z"/>
<path d="M1922 909 c-30 -12 -28 -64 2 -64 11 0 21 6 24 13 2 6 -3 12 -12 12
-9 0 -16 6 -16 14 0 16 34 31 49 22 4 -3 -3 -47 -17 -97 -26 -89 -26 -91 -7
-105 46 -34 132 -7 159 50 35 73 8 126 -76 151 -58 17 -73 18 -106 4z m136
-31 c27 -27 0 -148 -39 -168 -45 -25 -47 -15 -18 98 22 80 33 94 57 70z"/>
<path d="M2881 895 c-76 -24 -116 -81 -73 -104 13 -7 23 -6 30 1 18 18 14 31
-8 25 -14 -4 -20 0 -20 12 0 20 19 41 36 41 19 0 30 -80 13 -91 -11 -7 -11 -9
2 -9 10 0 20 -15 28 -40 11 -37 14 -40 49 -40 38 0 82 22 82 42 0 6 -8 4 -18
-5 -25 -22 -49 -21 -62 2 -17 33 -12 56 18 69 l27 11 -32 -5 c-30 -5 -32 -3
-43 36 -13 49 -10 53 30 53 17 0 30 4 30 9 0 12 -38 9 -89 -7z"/>
</g>
</svg>
